# File created by Blade
# Date/Time:  Fri Jan 16 19:18:57 2015
# Frame Rate: 120.000 fps
#------------------------------------------------------
:FULLY-SPECIFIED
:DEGREES
588
root 19.757442 35.801945 -21.946609 -168.218062 1.076212 -179.994541
Spine -25.164683 2.266773 4.817698
Head 20.059267 1.577029 -2.625549
LeftShoulder -20.663197 -60.261167 60.390065
LeftArm 53.154035 -49.331993 -17.567945
LeftForeArm -61.780308 -0.000000 101.195917
LeftHand 5.752908 -0.000000 -2.130612
LeftHandThumb1 -26.253704 0.000000 33.147579
RightShoulder -9.045804 21.287260 -50.129833
RightArm 83.933081 67.988933 39.193003
RightForeArm 43.348071 -0.000000 69.808396
RightHand 14.220198 -0.000000 28.791848
RightHandThumb1 -24.326973 -0.000000 -32.862282
LeftUpLeg -3.225499 10.441732 -1.782367
LeftLeg -6.635916 -0.000000 0.000000
LeftFoot -19.046023 25.463513 -17.697347
LeftToeBase 23.800223 -0.000000 -0.000000
RightUpLeg -4.310327 -4.445795 -0.623310
RightLeg -3.390409 -0.000000 0.000000
RightFoot -20.159918 -24.342504 17.931561
RightToeBase 22.704750 -0.000000 -0.000000
589
root 19.761984 35.800971 -21.946527 -168.201816 1.106391 -179.967702
Spine -25.159599 2.208228 4.790611
Head 20.033375 1.618085 -2.550126
LeftShoulder -20.665252 -60.402288 60.679796
LeftArm 52.886015 -49.414413 -17.328296
LeftForeArm -62.129296 -0.000000 100.891927
LeftHand 5.800434 0.000000 -2.078832
LeftHandThumb1 -26.253704 0.000000 33.147579
RightShoulder -9.121399 21.309556 -50.126055
RightArm 83.832966 68.132596 39.345291
RightForeArm 43.260985 -0.000000 69.987160
RightHand 14.214335 -0.000000 28.866441
RightHandThumb1 -24.326973 -0.000000 -32.862282
LeftUpLeg -3.231378 10.434116 -1.751828
LeftLeg -6.647092 -0.000000 0.000000
LeftFoot -19.074707 25.500576 -17.694003
LeftToeBase 23.818487 -0.000000 -0.000000
RightUpLeg -4.346022 -4.442218 -0.588060
RightLeg -3.367229 -0.000000 0.000000
RightFoot -20.222337 -24.339123 18.030857
RightToeBase 22.716957 -0.000000 -0.000000
590
root 19.767961 35.800130 -21.946740 -168.169853 1.149733 -179.929956
Spine -25.176855 2.187715 4.754392
Head 19.996849 1.648302 -2.409424
LeftShoulder -20.563258 -60.083663 60.492771
LeftArm 53.748915 -49.578533 -18.218657
LeftForeArm -61.609528 -0.000000 100.479643
LeftHand 6.324861 -0.000000 -1.978711
LeftHandThumb1 -26.253704 0.000000 33.147579
RightShoulder -9.245926 21.480806 -50.208404
RightArm 83.315656 68.111582 39.155816
RightForeArm 43.583297 -0.000000 70.231763
RightHand 14.150879 -0.000000 28.650449
RightHandThumb1 -24.326973 -0.000000 -32.862282
LeftUpLeg -3.247250 10.467371 -1.717074
LeftLeg -6.664884 -0.000000 0.000000
LeftFoot -19.086063 25.513313 -17.657405
LeftToeBase 23.847782 -0.000000 -0.000000
RightUpLeg -4.365456 -4.335259 -0.555829
RightLeg -3.396604 -0.000000 0.000000
RightFoot -20.210827 -24.355628 18.036101
RightToeBase 22.790886 -0.000000 -0.000000
591
root 19.770579 35.799191 -21.947181 -168.139736 1.173370 -179.904389
Spine -25.185827 2.119808 4.730315
Head 19.935567 1.695947 -2.281291
LeftShoulder -20.585485 -60.140898 60.706781
LeftArm 53.677090 -49.727558 -18.061184
LeftForeArm -61.842903 -0.000000 100.110212
LeftHand 6.477851 -0.000000 -2.012490
LeftHandThumb1 -26.253704 0.000000 33.147579
RightShoulder -9.379232 21.696750 -50.331240
RightArm 82.756725 68.059055 38.975583
RightForeArm 43.855217 -0.000000 70.489754
RightHand 14.131107 -0.000000 28.507047
RightHandThumb1 -24.326973 -0.000000 -32.862282
LeftUpLeg -3.245926 10.414826 -1.687168
LeftLeg -6.711609 -0.000000 0.000000
LeftFoot -19.100321 25.583093 -17.657991
LeftToeBase 23.880297 -0.000000 -0.000000
RightUpLeg -4.439577 -4.401833 -0.520049
RightLeg -3.312985 -0.000000 0.000000
RightFoot -20.174783 -24.275683 17.913075
RightToeBase 22.783804 -0.000000 -0.000000
592
root 19.774672 35.797960 -21.947890 -168.110577 1.203454 -179.880825
Spine -25.193694 2.036004 4.694033
Head 19.852403 1.725614 -2.072361
LeftShoulder -20.628685 -60.163190 60.922253
LeftArm 53.783930 -49.889201 -18.057476
LeftForeArm -61.888549 -0.000000 99.718869
LeftHand 6.604383 -0.000000 -2.024343
LeftHandThumb1 -26.253704 0.000000 33.147579
RightShoulder -9.491913 21.829092 -50.400150
RightArm 82.255458 68.125431 38.836912
RightForeArm 43.945766 -0.000000 70.757964
RightHand 14.228564 0.000000 28.449133
RightHandThumb1 -24.326973 -0.000000 -32.862282
LeftUpLeg -3.260607 10.430469 -1.666633
LeftLeg -6.730161 -0.000000 0.000000
LeftFoot -19.102341 25.603808 -17.632897
LeftToeBase 23.844122 -0.000000 -0.000000
RightUpLeg -4.490042 -4.416263 -0.486850
RightLeg -3.284431 -0.000000 0.000000
RightFoot -20.219629 -24.212256 17.994671
RightToeBase 22.775052 -0.000000 -0.000000
593
root 19.780301 35.798570 -21.948297 -168.087184 1.218044 -179.844026
Spine -25.198845 1.950137 4.678168
Head 19.814636 1.771741 -1.932853
LeftShoulder -20.670123 -60.162101 61.082036
LeftArm 54.016910 -50.069029 -18.158895
LeftForeArm -61.881198 0.000000 99.340275
LeftHand 6.676389 -0.000000 -2.008647
LeftHandThumb1 -26.253704 0.000000 33.147579
RightShoulder -9.506494 21.222297 -50.157650
RightArm 83.363295 68.748419 39.946193
RightForeArm 43.990442 -0.000000 70.817221
RightHand 14.361882 -0.000000 28.418950
RightHandThumb1 -24.326973 -0.000000 -32.862282
LeftUpLeg -3.277540 10.456110 -1.628878
LeftLeg -6.737150 -0.000000 0.000000
LeftFoot -19.113982 25.606040 -17.617378
LeftToeBase 23.888891 -0.000000 -0.000000
RightUpLeg -4.494614 -4.338628 -0.450676
RightLeg -3.320004 -0.000000 0.000000
RightFoot -20.201655 -24.251382 18.040842
RightToeBase 22.780052 -0.000000 -0.000000
